<?xml version="1.0" encoding="UTF-8" standalone="no"?>
<!-- Created with Inkscape (http://www.inkscape.org/) -->

<svg
   xmlns:dc="http://purl.org/dc/elements/1.1/"
   xmlns:cc="http://creativecommons.org/ns#"
   xmlns:rdf="http://www.w3.org/1999/02/22-rdf-syntax-ns#"
   xmlns:svg="http://www.w3.org/2000/svg"
   xmlns="http://www.w3.org/2000/svg"
   xmlns:sodipodi="http://sodipodi.sourceforge.net/DTD/sodipodi-0.dtd"
   xmlns:inkscape="http://www.inkscape.org/namespaces/inkscape"
   version="1.1"
   id="svg2"
   xml:space="preserve"
   width="339.39999"
   height="101.48"
   viewBox="0 0 339.39999 101.48"
   sodipodi:docname="uofm.svg"
   inkscape:export-filename="/home/steffi/Pictures/Work-related/Logos/uofm.png"
   inkscape:export-xdpi="350.02982"
   inkscape:export-ydpi="350.02982"
   inkscape:version="0.92.3 (2405546, 2018-03-11)"><metadata
     id="metadata8"><rdf:RDF><cc:Work
         rdf:about=""><dc:format>image/svg+xml</dc:format><dc:type
           rdf:resource="http://purl.org/dc/dcmitype/StillImage" /><dc:title></dc:title></cc:Work></rdf:RDF></metadata><defs
     id="defs6" /><sodipodi:namedview
     pagecolor="#ffffff"
     bordercolor="#666666"
     borderopacity="1"
     objecttolerance="10"
     gridtolerance="10"
     guidetolerance="10"
     inkscape:pageopacity="0"
     inkscape:pageshadow="2"
     inkscape:window-width="1641"
     inkscape:window-height="1032"
     id="namedview4"
     showgrid="false"
     inkscape:zoom="1.355333"
     inkscape:cx="4.0580434"
     inkscape:cy="50.740002"
     inkscape:window-x="3215"
     inkscape:window-y="734"
     inkscape:window-maximized="0"
     inkscape:current-layer="g10" /><g
     id="g10"
     inkscape:groupmode="layer"
     inkscape:label="ink_ext_XXXXXX"
     transform="matrix(1.3333333,0,0,-1.3333333,0,101.48)"><g
       id="g12"
       transform="scale(0.1)"><path
         d="m 975.703,659.75 v -7.375 c -25.652,-1.926 -28.223,-4.172 -28.223,-39.133 v -67.031 c 0,-27.266 3.536,-47.793 13.477,-62.227 9.941,-14.109 24.695,-22.129 46.193,-22.129 20.19,0 36.87,8.657 47.15,24.051 10.58,16.043 14.43,44.266 14.43,71.207 v 17.321 c 0,33.675 -1.29,51.32 -2.58,61.257 -1.6,11.227 -10.25,15.719 -31.42,16.684 v 7.375 h 76.97 v -7.375 c -17.64,-0.641 -25.98,-5.457 -27.58,-16.684 -1.29,-9.937 -2.57,-27.582 -2.57,-61.257 v -21.489 c 0,-37.207 -5.77,-63.507 -24.37,-83.394 -13.8,-14.75 -36.89,-23.09 -59.336,-23.09 -17.649,0 -37.844,4.168 -52.61,16.355 -16.992,13.789 -24.687,35.602 -24.687,72.164 v 78.262 c 0,34.961 -2.567,37.207 -29.512,39.133 v 7.375 h 84.668"
         style="fill:#5b2d05;fill-opacity:1;fill-rule:nonzero;stroke:none"
         id="path14"
         inkscape:connector-curvature="0" /><path
         d="m 1274,449.668 h -10.25 l -97.83,109.047 h -0.31 v -46.824 c 0,-23.098 0.95,-34.325 1.91,-41.055 0.97,-7.699 8.03,-11.227 24.06,-12.188 v -7.378 h -60.94 v 7.378 c 13.47,0.637 20.2,4.489 21.49,12.188 0.96,6.73 1.92,17.957 1.92,41.055 v 42.976 c 0,25.66 -5.12,30.469 -26.94,32.074 v 7.379 h 39.45 l 95.26,-104.882 h 0.64 v 44.261 c 0,23.094 -0.96,34.317 -1.92,41.375 -1.28,7.699 -8.34,10.906 -24.38,11.867 v 7.379 h 61.26 v -7.379 c -13.47,-0.64 -20.2,-4.168 -21.48,-11.867 -0.97,-7.058 -1.94,-18.281 -1.94,-41.375 v -84.031"
         style="fill:#5b2d05;fill-opacity:1;fill-rule:nonzero;stroke:none"
         id="path16"
         inkscape:connector-curvature="0" /><path
         d="m 1382.11,485.27 c 0,-23.415 1.92,-25.02 22.45,-26.622 v -7.378 h -69.92 v 7.378 c 20.53,1.602 22.45,3.207 22.45,26.622 v 75.05 c 0,23.739 -1.92,25.016 -22.45,26.621 v 7.379 h 69.92 v -7.379 c -20.53,-1.605 -22.45,-2.882 -22.45,-26.621 v -75.05"
         style="fill:#5b2d05;fill-opacity:1;fill-rule:nonzero;stroke:none"
         id="path18"
         inkscape:connector-curvature="0" /><path
         d="m 1512.97,449.023 c -16.67,39.77 -39.77,94.297 -50.03,118.676 -6.73,16.035 -10.58,17.637 -25.98,19.242 v 7.379 h 65.43 v -7.379 l -8.97,-1.281 c -8.67,-0.965 -9.63,-3.211 -6.1,-12.187 4.49,-11.871 23.09,-55.489 37.84,-89.164 11.23,25.336 28.86,72.804 34,87.238 3.54,10.266 1.93,13.148 -8.98,14.433 l -7.05,0.961 v 7.379 h 57.73 v -7.379 c -16.99,-1.921 -20.22,-4.812 -30.47,-25.98 -8.34,-16.996 -29.82,-66.711 -48.44,-111.938 h -8.98"
         style="fill:#5b2d05;fill-opacity:1;fill-rule:nonzero;stroke:none"
         id="path20"
         inkscape:connector-curvature="0" /><path
         d="m 1652.83,560.32 c 0,23.739 -1.6,25.34 -21.81,26.621 v 7.379 h 113.22 c 0.33,-6.093 1.29,-21.172 2.58,-35.922 l -8.03,-0.644 c -2.25,11.226 -4.81,17.32 -8.01,20.527 -3.22,3.207 -10.27,6.414 -25.66,6.414 h -17.97 c -8.99,0 -9.3,0 -9.3,-8.015 v -45.547 h 25.33 c 20.22,0 20.86,1.285 23.42,17.64 h 8.03 v -47.148 h -8.03 c -2.56,17.641 -3.2,18.605 -23.42,18.605 h -25.33 v -34.96 c 0,-12.512 1.6,-19.567 6.1,-21.813 4.49,-2.246 11.23,-2.562 25.66,-2.562 13.46,0 23.73,1.921 28.87,7.054 3.84,3.848 8.34,10.903 11.54,21.809 l 8.34,-0.965 c -1.6,-8.332 -6.43,-31.43 -8.34,-37.523 h -121.25 v 7.378 c 22.46,1.602 24.06,3.207 24.06,26.942 v 74.73"
         style="fill:#5b2d05;fill-opacity:1;fill-rule:nonzero;stroke:none"
         id="path22"
         inkscape:connector-curvature="0" /><path
         d="m 1843.07,521.832 h 14.74 c 6.74,0 14.75,0.961 21.49,5.133 8.34,5.453 11.87,17.64 11.87,27.582 0,21.172 -15.39,30.789 -33.04,30.789 -14.44,0 -15.06,-0.316 -15.06,-9.301 z m 0,-36.562 c 0,-23.415 1.91,-25.02 22.44,-26.622 v -7.378 h -70.24 v 7.378 c 20.84,1.602 22.78,3.207 22.78,26.622 v 75.05 c 0,23.739 -1.94,25.016 -21.82,26.621 v 7.379 h 69.59 c 14.77,0 27.27,-1.929 36.58,-7.379 8.97,-5.453 15.71,-15.394 15.71,-29.503 0,-19.567 -13.15,-30.793 -31.12,-37.208 3.54,-6.738 14.12,-22.132 20.86,-31.753 7.7,-10.911 13.46,-17.965 18.93,-23.094 3.85,-3.852 9.61,-7.379 16.68,-9.621 l -0.98,-6.414 h -4.8 c -26.63,-0.325 -38.17,8.015 -47.15,19.879 -7.7,10.265 -16.68,25.984 -22.13,34.961 -4.49,7.703 -6.74,8.664 -15.72,8.664 h -9.61 V 485.27"
         style="fill:#5b2d05;fill-opacity:1;fill-rule:nonzero;stroke:none"
         id="path24"
         inkscape:connector-curvature="0" /><path
         d="m 1978.75,496.172 c 4.47,-16.68 20.84,-39.129 42.32,-39.129 17.64,0 28.87,9.945 28.87,25.656 0,17.965 -16.68,25.344 -31.42,31.114 -16.04,6.417 -41.7,16.359 -41.7,41.378 0,25.336 20.21,42.977 51.64,42.977 14.74,0 25.97,-4.168 31.75,-5.777 2.25,-9.293 3.52,-20.528 5.77,-35.598 l -8.01,-0.641 c -4.83,18.282 -16.04,32.395 -34.65,32.395 -16.03,0 -25.02,-10.906 -25.02,-23.094 0,-16.039 15.41,-22.133 29.84,-27.582 21.49,-8.023 44.57,-18.285 44.91,-45.226 0,-26.942 -23.11,-45.223 -54.53,-45.223 -20.22,0 -35.3,7.695 -40.75,11.226 -1.6,4.809 -4.8,23.09 -7.36,36.883 l 8.34,0.641"
         style="fill:#5b2d05;fill-opacity:1;fill-rule:nonzero;stroke:none"
         id="path26"
         inkscape:connector-curvature="0" /><path
         d="m 2162.85,485.27 c 0,-23.415 1.94,-25.02 22.46,-26.622 v -7.378 h -69.92 v 7.378 c 20.53,1.602 22.44,3.207 22.44,26.622 v 75.05 c 0,23.739 -1.91,25.016 -22.44,26.621 v 7.379 h 69.92 v -7.379 c -20.52,-1.605 -22.46,-2.882 -22.46,-26.621 v -75.05"
         style="fill:#5b2d05;fill-opacity:1;fill-rule:nonzero;stroke:none"
         id="path28"
         inkscape:connector-curvature="0" /><path
         d="m 2281.54,584.695 h -9.94 c -18.92,0 -25.35,-3.527 -28.87,-7.375 -2.89,-3.211 -5.78,-8.98 -8.67,-21.168 h -7.69 c 0.95,16.68 2.58,32.395 2.89,43.618 h 4.16 c 3.53,-4.809 6.09,-5.45 12.21,-5.45 h 99.41 c 6.09,0 7.38,1.282 10.92,5.45 h 4.16 c 0.33,-8.977 1.6,-29.184 2.89,-42.977 l -8.03,-0.641 c -2.56,13.149 -4.8,18.922 -8.34,22.45 -4.16,4.171 -11.85,6.093 -25.64,6.093 h -14.44 V 485.27 c 0,-23.415 1.92,-25.02 25.02,-26.622 v -7.378 h -74.1 v 7.378 c 22.13,1.602 24.06,3.207 24.06,26.622 v 99.425"
         style="fill:#5b2d05;fill-opacity:1;fill-rule:nonzero;stroke:none"
         id="path30"
         inkscape:connector-curvature="0" /><path
         d="m 2434.51,451.27 v 7.378 c 23.09,1.602 24.69,3.207 24.69,26.622 v 19.566 c 0,6.094 -0.65,8.016 -4.81,15.07 -6.73,11.871 -15.72,26.621 -30.46,50.996 -8.34,14.118 -10.59,14.434 -25.02,16.039 v 7.379 h 64.14 v -7.379 l -9.94,-1.281 c -7.39,-0.965 -7.7,-2.887 -4.5,-9.305 1.6,-3.207 22.13,-38.484 29.83,-50.996 9.94,17 19.88,38.489 25.02,49.075 4.18,8.98 3.53,10.261 -5.14,11.226 l -9.3,1.281 v 7.379 h 56.45 v -7.379 c -17.31,-1.605 -18.59,-3.843 -27.25,-16.355 -8.67,-12.512 -18.28,-27.906 -28.86,-46.508 -4.83,-8.656 -5.14,-10.902 -5.14,-15.719 V 485.27 c 0,-23.415 1.91,-25.02 25.66,-26.622 v -7.378 h -75.37"
         style="fill:#5b2d05;fill-opacity:1;fill-rule:nonzero;stroke:none"
         id="path32"
         inkscape:connector-curvature="0" /><path
         d="m 1207.85,370.73 77.44,-164.785 76.16,164.785 h 52.79 v -7.351 c -27.83,-2.238 -29.76,-3.527 -28.79,-39.031 l 2.56,-115.2 c 0.95,-35.839 1.91,-36.796 30.08,-39.043 v -7.351 h -84.48 v 7.351 c 26.88,2.247 27.84,3.204 27.51,39.043 l -1.28,128.95 h -1.28 l -78.38,-171.821 h -8.01 l -73.91,167.344 h -0.64 l -3.21,-89.273 c -1.28,-30.082 -1.28,-47.676 0,-57.598 1.61,-11.84 9.28,-15.039 30.08,-16.645 v -7.351 h -75.19 v 7.351 c 17.92,1.606 24.65,4.805 26.87,16.645 1.94,9.922 3.85,29.117 5.45,60.801 l 3.52,67.183 c 2.24,42.895 0,46.407 -30.08,48.645 v 7.351 h 52.79"
         style="fill:#5b2d05;fill-opacity:1;fill-rule:nonzero;stroke:none"
         id="path34"
         inkscape:connector-curvature="0" /><path
         d="m 1489.13,226.102 h 37.12 l -18.55,48.644 h -0.65 z m 40.32,-55.997 6.08,0.649 c 8.96,0.957 11.83,3.512 5.45,18.555 l -10.89,25.918 h -44.47 c -2.24,-5.122 -7.69,-20.161 -10.88,-29.75 -3.84,-10.875 -0.97,-14.082 8.31,-14.723 l 7.36,-0.649 v -7.351 h -56 v 7.351 c 14.09,1.606 19.53,2.895 28.8,24.961 l 47.36,112.317 8,1.926 47.68,-118.079 c 7.68,-18.878 13.75,-20.156 27.83,-21.125 v -7.351 h -64.63 v 7.351"
         style="fill:#5b2d05;fill-opacity:1;fill-rule:nonzero;stroke:none"
         id="path36"
         inkscape:connector-curvature="0" /><path
         d="m 1750.57,161.152 h -10.25 l -97.59,108.797 h -0.33 V 223.23 c 0,-23.046 0.97,-34.238 1.93,-40.957 0.96,-7.671 7.99,-11.199 23.99,-12.168 v -7.351 h -60.79 v 7.351 c 13.45,0.649 20.17,4.497 21.43,12.168 0.96,6.719 1.93,17.911 1.93,40.957 v 42.872 c 0,25.609 -5.12,30.402 -26.89,32.003 v 7.356 h 39.37 l 95.03,-104.629 h 0.64 v 44.156 c 0,23.039 -0.95,34.239 -1.92,41.274 -1.28,7.683 -8.31,10.879 -24.32,11.843 v 7.356 h 61.13 v -7.356 c -13.44,-0.632 -20.17,-4.16 -21.45,-11.843 -0.96,-7.035 -1.91,-18.235 -1.91,-41.274 v -83.836"
         style="fill:#5b2d05;fill-opacity:1;fill-rule:nonzero;stroke:none"
         id="path38"
         inkscape:connector-curvature="0" /><path
         d="m 1851.37,196.672 c 0,-23.363 1.91,-24.961 22.4,-26.567 v -7.351 H 1804 v 7.351 c 20.49,1.606 22.41,3.204 22.41,26.567 v 74.883 c 0,23.672 -1.92,24.949 -22.41,26.55 v 7.356 h 69.77 v -7.356 c -20.49,-1.601 -22.4,-2.878 -22.4,-26.55 v -74.883"
         style="fill:#5b2d05;fill-opacity:1;fill-rule:nonzero;stroke:none"
         id="path40"
         inkscape:connector-curvature="0" /><path
         d="m 1962.73,295.867 h -9.92 c -18.88,0 -25.29,-3.523 -28.81,-7.359 -2.87,-3.203 -5.76,-8.965 -8.63,-21.117 h -7.67 c 0.95,16.632 2.55,32.304 2.87,43.515 h 4.16 c 3.51,-4.804 6.07,-5.445 12.16,-5.445 h 99.18 c 6.1,0 7.37,1.285 10.88,5.445 h 4.16 c 0.34,-8.965 1.6,-29.121 2.89,-42.879 l -8,-0.636 c -2.56,13.117 -4.81,18.871 -8.32,22.394 -4.16,4.16 -11.84,6.082 -25.59,6.082 h -14.41 v -99.195 c 0,-23.363 1.93,-24.961 24.96,-26.567 v -7.351 h -73.91 v 7.351 c 22.07,1.606 24,3.204 24,26.567 v 99.195"
         style="fill:#5b2d05;fill-opacity:1;fill-rule:nonzero;stroke:none"
         id="path42"
         inkscape:connector-curvature="0" /><path
         d="m 2142.89,168.516 c 24.63,0 44.16,15.996 44.16,60.793 0,36.484 -17.93,70.386 -49.92,70.386 -25.92,0 -44.47,-22.066 -44.47,-61.109 0,-41.594 18.55,-70.07 50.23,-70.07 z m -79.04,62.39 c 0,53.75 42.24,78.403 76.15,78.403 46.07,0 75.84,-32.329 75.84,-73.594 0,-50.238 -38.09,-76.797 -75.51,-76.797 -49.61,0 -76.48,37.437 -76.48,71.988"
         style="fill:#5b2d05;fill-opacity:1;fill-rule:nonzero;stroke:none"
         id="path44"
         inkscape:connector-curvature="0" /><path
         d="m 2284.32,235.066 v -39.351 c 0,-20.805 6.72,-24.004 22.09,-24.004 18.24,0 31.99,9.605 31.99,31.363 0,22.719 -17.29,31.992 -37.76,31.992 z m 0,8.325 h 17.59 c 15.38,0 29.13,7.039 29.13,26.558 0,18.867 -14.71,26.555 -30.4,26.555 -15.68,0 -16.32,-0.637 -16.32,-8.32 z m 25.91,62.07 c 15.69,0 26.25,-1.914 34.57,-7.356 8.33,-5.128 13.11,-13.449 13.11,-25.285 0,-19.511 -19.51,-28.789 -32.3,-31.343 v -0.645 c 22.71,-2.562 41.6,-14.398 41.6,-36.484 0,-16.957 -10.57,-28.481 -23.36,-34.243 -12.17,-5.425 -27.52,-7.351 -43.52,-7.351 h -63.69 v 7.351 c 20.8,1.606 22.74,3.204 22.74,26.567 v 75.191 c 0,23.364 -1.94,24.961 -21.45,26.567 v 7.031 h 72.3"
         style="fill:#5b2d05;fill-opacity:1;fill-rule:nonzero;stroke:none"
         id="path46"
         inkscape:connector-curvature="0" /><path
         d="m 2437.27,226.102 h 37.12 l -18.55,48.644 h -0.64 z m 40.33,-55.997 6.07,0.649 c 8.97,0.957 11.84,3.512 5.43,18.555 l -10.88,25.918 h -44.47 c -2.25,-5.122 -7.68,-20.161 -10.88,-29.75 -3.83,-10.875 -0.96,-14.082 8.32,-14.723 l 7.36,-0.649 v -7.351 h -55.99 v 7.351 c 14.08,1.606 19.51,2.895 28.79,24.961 l 47.36,112.317 8.01,1.926 47.67,-118.079 c 7.68,-18.878 13.75,-20.156 27.84,-21.125 v -7.351 h -64.63 v 7.351"
         style="fill:#5b2d05;fill-opacity:1;fill-rule:nonzero;stroke:none"
         id="path48"
         inkscape:connector-curvature="0" /><path
         d="m 953.445,215.867 c 14.524,0 26.028,9.438 26.028,35.844 0,21.504 -10.567,41.48 -29.414,41.48 -15.286,0 -26.219,-13.007 -26.219,-36.011 0,-24.512 10.933,-41.313 29.605,-41.313 z m -46.582,36.778 c 0,31.691 24.895,46.21 44.895,46.21 27.148,0 44.687,-19.042 44.687,-43.378 0,-29.61 -22.441,-45.25 -44.511,-45.25 -29.231,0 -45.071,22.058 -45.071,42.418"
         style="fill:#5b2d05;fill-opacity:1;fill-rule:nonzero;stroke:none"
         id="path50"
         inkscape:connector-curvature="0" /><path
         d="m 1022.32,276.609 c 0,13.95 -0.93,14.707 -12.82,15.649 v 4.336 h 65.07 c 0.19,-3.578 0.75,-12.446 1.5,-20.942 l -4.7,-0.371 c -1.33,6.407 -2.83,10 -4.91,12.071 -1.69,1.703 -5.85,3.586 -14.9,3.586 h -9.06 c -5.27,0 -5.47,0 -5.47,-4.715 v -28.481 h 14.9 c 11.89,0 12.27,0.766 13.77,10.371 h 4.71 V 240.77 h -4.71 c -1.5,10 -1.88,10.57 -13.77,10.57 h -14.9 v -18.867 c 0,-13.774 1.13,-14.707 15.1,-15.657 v -4.336 h -42.63 v 4.336 c 11.89,0.95 12.82,1.883 12.82,15.657 v 44.136"
         style="fill:#5b2d05;fill-opacity:1;fill-rule:nonzero;stroke:none"
         id="path52"
         inkscape:connector-curvature="0" /><path
         d="M 1095.94,175.867 H 890.898 v -13.113 h 205.042 v 13.113"
         style="fill:#5b2d05;fill-opacity:1;fill-rule:nonzero;stroke:none"
         id="path54"
         inkscape:connector-curvature="0" /><path
         d="m 360.781,0 -3.906,1.53125 C 319.668,15.9688 284.414,37.1289 252.07,64.4805 H 130.293 119.492 v 10.8008 72.8167 l 0.098,1.992 0.027,2.156 H 28.125 1.71875 L 20.5664,170.73 51.7578,201.328 20.8984,229.133 0,247.949 h 28.125 93.789 C 93.5938,316.992 78.6523,393.816 78.6523,471.215 v 58.043 221.023 10.797 H 89.4531 632.207 643.008 V 750.281 529.258 l 0.019,-57.985 c 0,-77.39 -14.902,-154.195 -43.222,-223.199 h 93.203 28.125 l -20.899,-18.824 -30.859,-27.773 31.191,-30.586 18.887,-18.516 H 693.008 602.52 v -3.125 -1.152 l 0.097,-72.8167 V 64.4805 H 591.824 469.52 C 437.18,37.1289 401.902,15.9453 364.688,1.53125 L 360.781,0 v 0"
         style="fill:#ffffff;fill-opacity:1;fill-rule:nonzero;stroke:none"
         id="path56"
         inkscape:connector-curvature="0" /><path
         d="m 581.895,149.336 h -48.379 c 7.722,10.715 15.039,21.797 21.757,32.969 z m -394.305,0.723 h -46.457 l 25.586,31.668 c 6.465,-10.719 13.476,-21.368 20.871,-31.668 z m 466.629,51.726 39.863,35.899 H 584.063 c 31.796,71.386 48.593,152.144 48.593,233.589 l -0.039,279.415 H 89.0508 V 471.215 c 0,-81.485 16.8012,-162.262 48.5862,-233.649 H 27.0508 L 66.9063,201.672 27.832,163.34 27.1172,162.637 H 139.531 l -9.472,-12.41 -0.079,-0.122 -0.007,-1.597 h -0.09 V 74.8633 h 126.035 c 32.234,-27.7852 67.473,-49.211 104.727,-63.6641 l 0.148,-0.0586 0.145,0.0586 c 37.246,14.4531 72.492,35.8711 104.746,63.6641 h 126.543 v 73.6447 h -0.098 v 0.887 l -10.188,13.359 h 112.082 l -39.804,39.031"
         style="fill:#5b2d05;fill-opacity:1;fill-rule:nonzero;stroke:none"
         id="path58"
         inkscape:connector-curvature="0" /><path
         d="m 278.887,74.9492 c 25.898,-19.8594 53.718,-35.6328 82.676,-46.875 l 0.136,-0.0469 0.149,0.0469 c 28.953,11.2422 56.765,27.0156 82.672,46.875 l 0.929,0.7266 h -167.5 l 0.938,-0.7266"
         style="fill:#fab20b;fill-opacity:1;fill-rule:nonzero;stroke:none"
         id="path60"
         inkscape:connector-curvature="0" /><path
         d="m 105.117,517.59 v -55.199 c 0,-116.832 35.598,-227.989 100.215,-312.989 l 0.129,-0.152 h 312.508 l 0.117,0.152 c 64.668,85.039 100.281,196.223 100.281,313.059 v 55.129 h -513.25"
         style="fill:#fab20b;fill-opacity:1;fill-rule:nonzero;stroke:none"
         id="path62"
         inkscape:connector-curvature="0" /><path
         d="m 566.035,440.742 c -0.039,0.137 -0.144,0.254 -0.273,0.297 -6.133,2.129 -8.094,9.199 -9.043,12.598 -0.449,1.621 -0.606,2.168 -1.133,2.168 -0.039,0 -0.078,-0.004 -0.117,-0.012 -0.633,-0.148 -1.309,-0.348 -2.031,-0.559 -1.805,-0.539 -3.86,-1.14 -6.165,-1.14 -2.871,0 -5.593,0.957 -8.308,2.918 -0.078,0.047 -0.195,0.09 -0.281,0.09 -0.403,0 -0.704,-0.34 -3.262,-3.606 -3.977,-5.082 -12.258,-15.66 -16.692,-15.66 -1.484,1.027 4.219,19.012 6.083,24.922 1.828,5.75 1.808,5.758 1.613,6.031 -0.078,0.113 -0.215,0.18 -0.352,0.18 -0.019,0 -0.019,0 -0.027,0 -0.559,-0.035 -1.106,-0.047 -1.633,-0.047 -12.371,0 -14.746,9.219 -15.879,13.644 -0.422,1.622 -0.625,2.438 -1.211,2.61 -6.933,2.035 -12.324,12.301 -14.355,16.168 -0.821,1.566 -0.879,1.664 -1.211,1.664 -0.176,0 -0.332,-0.113 -0.41,-0.266 -6.504,-14.051 -12.598,-16.457 -14.59,-17.254 -0.606,-0.238 -0.945,-0.371 -1.035,-0.738 -2.168,-10.496 -7.364,-15.82 -15.457,-15.82 -0.422,0 -0.793,0.015 -1.106,0.023 -0.793,0.027 -1.23,0.055 -1.504,-0.16 -0.918,-0.707 -0.078,-3.422 2.559,-11 2.5,-7.203 5.93,-17.07 4.414,-20 -0.078,-0.16 -0.188,-0.227 -0.371,-0.227 -2.871,0 -13.086,12.137 -16.934,16.707 -2.383,2.821 -2.383,2.821 -2.656,2.821 -0.117,0 -0.227,-0.043 -0.313,-0.121 -1.933,-1.832 -4.531,-2.758 -7.695,-2.758 -2.637,0 -5.137,0.625 -6.797,1.043 -0.879,0.219 -1.504,0.383 -1.894,0.383 -0.528,0 -0.645,-0.321 -0.684,-0.45 -2.5,-10.898 -7.226,-13.105 -8.777,-13.836 -0.422,-0.195 -0.649,-0.3 -0.715,-0.574 -0.02,-0.133 0.02,-0.316 0.098,-0.422 14.48,-17.859 5.625,-25.105 2.707,-27.488 -0.676,-0.551 -0.957,-0.781 -0.93,-1.137 0.02,-0.14 0.137,-0.332 0.266,-0.406 22.254,-12.691 27.097,-17.66 27.695,-21.484 -0.149,-0.774 -4.848,-7.66 -7.941,-10.133 -0.137,-0.098 -0.196,-0.277 -0.176,-0.434 0.058,-0.347 0.183,-0.386 2.187,-1.015 4.824,-1.528 17.656,-5.578 24.364,-13.426 0.089,-0.102 0.238,-0.18 0.363,-0.18 0.351,0 1.777,0.528 6.484,2.309 3.34,1.258 8.223,3.101 9.668,3.457 -0.137,-4.399 -1.445,-36.953 -1.465,-37.297 0,-0.117 0.039,-0.234 0.117,-0.32 0.079,-0.078 0.196,-0.129 0.313,-0.129 l 20.039,-0.203 v 0 h 0.012 c 0.008,0 0.008,0 0.008,0 0.234,0 0.429,0.195 0.429,0.425 0,0.063 0,0.118 -0.019,0.161 -0.117,2.293 -1.563,32.711 -1.668,37.91 2.566,-0.727 15.32,-5.41 16.511,-6.098 0.176,-0.152 0.43,-0.152 0.618,0.012 6.636,6.648 10.488,8.086 18.152,10.957 2.266,0.844 4.824,1.801 7.852,3.047 0.136,0.054 0.253,0.195 0.293,0.332 0.078,0.383 -0.125,0.66 -2.227,2.976 -1.992,2.203 -5.703,6.313 -5.547,7.684 0.645,6.269 19.277,16.676 25.399,20.086 2.511,1.406 2.511,1.406 2.531,1.711 0.012,0.14 -0.059,0.289 -0.176,0.371 -3.547,2.699 -5.559,5.922 -5.977,9.578 -0.886,7.691 5.43,15.328 7.5,17.832 0.762,0.918 0.84,1.012 0.762,1.285"
         style="fill:#5b2d05;fill-opacity:1;fill-rule:nonzero;stroke:none"
         id="path64"
         inkscape:connector-curvature="0" /><path
         d="m 282.754,440.648 c -3.106,1.317 -6.301,1.985 -9.492,1.985 -8.301,0 -14.324,-4.426 -16.309,-5.879 -0.215,-0.16 -0.383,-0.285 -0.488,-0.348 -4.785,-3.066 -9.649,-4.625 -14.453,-4.625 -8.711,0 -14.336,5.176 -14.395,5.231 l -0.262,0.25 -0.285,-0.235 c -4.343,-3.636 -9.511,-5.558 -14.922,-5.558 -4.953,-0.004 -9.875,1.652 -14.238,4.781 -0.332,0.238 -0.722,0.57 -1.191,0.961 -2.547,2.125 -7.285,6.082 -14.473,6.082 -0.183,0 -0.359,0 -0.547,-0.008 -7.883,-0.226 -13.789,-3.074 -17.558,-8.461 -4.786,-6.851 -4.786,-16.39 -3.25,-20.976 6.843,-20.571 18.394,-45.91 20.105,-49.621 -5.41,-1.329 -10.391,-6.914 -10.391,-11.805 0,-6.516 5.293,-11.817 11.797,-11.817 h 0.032 l 0.027,0.008 c 14.812,2.434 29.961,3.664 45.019,3.664 15.333,0 31.028,-1.25 45.43,-3.625 6.57,0 11.914,5.254 11.914,11.7 0,5.058 -5.769,10.148 -10,11.945 1.25,2.805 9.055,20.555 18.379,45.57 5.313,14.274 1.406,25.781 -10.449,30.781"
         style="fill:#5b2d05;fill-opacity:1;fill-rule:nonzero;stroke:none"
         id="path66"
         inkscape:connector-curvature="0" /><path
         d="M 237.559,355.352 C 230.391,355.012 220,349.133 220,349.133 c 1.563,1.59 2.5,3.758 2.5,6.16 0,2.449 -0.977,4.656 -2.59,6.27 0,0 10.481,-5.872 17.649,-6.211 v 0"
         style="fill:#ffffff;fill-opacity:1;fill-rule:nonzero;stroke:none"
         id="path68"
         inkscape:connector-curvature="0" /><path
         d="m 273.098,351.477 c -7.141,0.914 -18.364,-3.071 -18.364,-3.071 1.809,1.289 3.125,3.266 3.547,5.625 0.41,2.422 -0.168,4.77 -1.484,6.621 0,0 9.277,-7.586 16.301,-9.175 v 0"
         style="fill:#ffffff;fill-opacity:1;fill-rule:nonzero;stroke:none"
         id="path70"
         inkscape:connector-curvature="0" /><path
         d="m 200.813,355.051 c -7.024,-1.574 -16.204,-9.16 -16.204,-9.16 1.25,1.836 1.805,4.136 1.407,6.5 -0.45,2.406 -1.817,4.418 -3.653,5.722 0,0 11.309,-3.965 18.45,-3.062 v 0"
         style="fill:#ffffff;fill-opacity:1;fill-rule:nonzero;stroke:none"
         id="path72"
         inkscape:connector-curvature="0" /><path
         d="m 557.578,437.781 c -0.051,0.227 -0.234,0.324 -0.43,0.422 -2.148,1.11 -3.906,4.551 -5.214,10.238 -0.02,0.129 -0.157,0.426 -0.645,0.426 -0.351,0 -0.898,-0.129 -1.641,-0.304 -1.308,-0.305 -3.281,-0.766 -5.293,-0.766 -1.816,0 -3.386,0.379 -4.648,1.113 -0.066,0.039 -0.144,0.059 -0.215,0.059 -0.234,0 -0.234,0 -1.699,-1.629 -3.789,-4.235 -15.344,-17.121 -20.781,-17.121 -0.352,0 -0.664,0.058 -0.949,0.172 -6.208,2.558 -1.415,16.75 1.457,25.23 1.75,5.18 2.089,6.438 1.503,6.891 -0.156,0.121 -0.41,0.183 -0.918,0.304 -2.617,0.645 -10.617,2.598 -13.347,15.762 -0.07,0.324 -0.363,0.438 -0.84,0.625 -1.574,0.621 -6.359,2.508 -11.496,13.61 -0.059,0.117 -0.164,0.203 -0.293,0.23 l -0.227,0.043 c -0.164,0.043 -0.359,-0.059 -0.449,-0.231 -5.125,-11.093 -9.93,-12.976 -11.504,-13.597 -0.476,-0.192 -0.769,-0.309 -0.847,-0.629 -2.715,-13.195 -10.723,-15.133 -13.348,-15.77 -0.5,-0.121 -0.754,-0.179 -0.91,-0.3 -0.586,-0.454 -0.235,-1.707 1.511,-6.879 2.864,-8.489 7.668,-22.688 1.458,-25.246 -0.274,-0.114 -0.594,-0.168 -0.958,-0.168 -5.41,0 -16.953,12.871 -20.75,17.097 -1.488,1.657 -1.488,1.657 -1.73,1.657 -0.059,0 -0.137,-0.02 -0.195,-0.059 -1.27,-0.738 -2.832,-1.113 -4.649,-1.113 -2.019,0 -3.984,0.457 -5.293,0.761 -0.754,0.176 -1.3,0.301 -1.64,0.301 -0.508,0 -0.633,-0.297 -0.664,-0.426 -1.309,-5.687 -3.067,-9.129 -5.215,-10.238 -0.196,-0.098 -0.371,-0.195 -0.43,-0.418 -0.039,-0.113 0,-0.285 0.078,-0.383 9.453,-13.382 4.688,-21.504 3.125,-24.168 -0.41,-0.711 -0.605,-1.031 -0.527,-1.343 0.039,-0.11 0.144,-0.258 0.234,-0.313 17.356,-9.898 23.211,-15.25 24.114,-22.016 0.242,-1.746 -2.153,-5.542 -3.977,-7.625 -0.078,-0.101 -0.117,-0.261 -0.078,-0.386 0.078,-0.301 0.293,-0.371 1.648,-0.856 3.098,-1.097 11.321,-4.015 16.516,-10.101 0.078,-0.102 0.215,-0.16 0.332,-0.16 0.273,0 1.484,0.468 7.656,2.914 4.199,1.675 10.371,4.125 12,4.601 0,-0.176 0.012,-0.34 0.012,-0.515 0.039,-2.106 0.105,-5.629 -1.192,-38.766 0,-0.109 0.04,-0.227 0.118,-0.305 0.078,-0.078 0.175,-0.113 0.293,-0.113 l 10.586,-0.063 c 0.117,0 0.222,0.063 0.293,0.137 0.078,0.078 0.125,0.188 0.117,0.293 -1.289,33.176 -1.231,36.684 -1.192,38.778 0.008,0.175 0.02,0.339 0.02,0.511 1.582,-0.469 7.43,-2.781 11.805,-4.519 6.007,-2.383 7.57,-2.992 7.863,-2.992 0.117,0 0.254,0.058 0.332,0.16 5.183,6.082 13.406,8.996 16.504,10.093 1.367,0.485 1.574,0.559 1.66,0.856 0.027,0.133 0,0.293 -0.098,0.394 -1.816,2.082 -4.211,5.891 -3.965,7.625 0.899,6.774 6.77,12.118 24.122,22.016 0.097,0.055 0.207,0.199 0.234,0.309 0.078,0.304 -0.109,0.629 -0.527,1.332 -1.563,2.668 -6.348,10.781 3.105,24.175 0.078,0.098 0.117,0.27 0.078,0.383"
         style="fill:#ffffff;fill-opacity:1;fill-rule:nonzero;stroke:none"
         id="path74"
         inkscape:connector-curvature="0" /><path
         d="m 490.977,444.727 -2.754,-51.231 -0.02,-0.305 h 6.301 l -2.961,51.536 h -0.566"
         style="fill:#5b2d05;fill-opacity:1;fill-rule:nonzero;stroke:none"
         id="path76"
         inkscape:connector-curvature="0" /><path
         d="m 525.938,415.637 -27.442,-24.09 -0.234,-0.203 4.504,-4.485 23.582,28.371 -0.41,0.407"
         style="fill:#5b2d05;fill-opacity:1;fill-rule:nonzero;stroke:none"
         id="path78"
         inkscape:connector-curvature="0" /><path
         d="m 456.523,415.254 23.387,-28.121 0.207,-0.242 4.473,4.464 -27.656,24.305 -0.411,-0.406"
         style="fill:#5b2d05;fill-opacity:1;fill-rule:nonzero;stroke:none"
         id="path80"
         inkscape:connector-curvature="0" /><path
         d="m 449.063,304.641 v 0.164 l -0.43,0.437 h -50.781 c -4.883,0.117 -9.012,1.274 -11.934,3.344 l -0.742,0.484 c -3.242,2.114 -6.934,3.059 -11.961,3.059 -4.758,0 -9.094,-3.469 -12.258,-5.988 -0.41,-0.332 -0.801,-0.633 -1.16,-0.914 -0.402,0.308 -0.832,0.652 -1.281,1.011 -3.125,2.524 -7.403,5.957 -12.11,5.957 -4.765,0 -9.258,-1.211 -12.636,-3.406 l -0.821,-0.461 c -2.89,-2.051 -6.238,-2.969 -11.211,-3.086 l -50.383,0.063 h -0.41 v -121.45 h 51.196 c 5.144,0.122 8.629,1.086 11.629,3.204 l 0.8,0.453 c 3.262,2.129 7.598,3.289 12.207,3.289 4.434,0 8.582,-3.352 11.621,-5.789 0.547,-0.442 1.055,-0.864 1.536,-1.223 l 0.242,-0.187 0.254,0.187 c 0.449,0.344 0.937,0.731 1.445,1.145 3.066,2.441 7.266,5.796 11.719,5.796 4.863,0 8.41,-0.894 11.504,-2.925 l 0.73,-0.469 c 3.051,-2.16 7.324,-3.359 12.395,-3.481 h 51.035 l -0.195,120.786"
         style="fill:#5b2d05;fill-opacity:1;fill-rule:nonzero;stroke:none"
         id="path82"
         inkscape:connector-curvature="0" /><path
         d="M 456.563,290.477 V 177.09 H 397.82 c -4.5,0.176 -7.324,0.652 -10.332,2.762 l -1.277,0.675 c -3.367,2.215 -7.859,3.43 -12.648,3.43 -4.774,0 -9.098,-3.457 -12.254,-5.98 -0.411,-0.332 -0.801,-0.641 -1.172,-0.918 -0.403,0.316 -0.84,0.668 -1.289,1.015 -3.125,2.524 -7.395,5.957 -12.09,5.957 -5.078,0 -10.457,-2.027 -13.555,-4.043 l 0.02,-0.039 c -2.891,-1.719 -7.012,-2.754 -11.504,-2.859 h -57.871 v 113.387 h -6.602 V 170.598 h 64.484 c 5.25,0.117 8.758,1.05 11.708,3.14 l 0.734,0.512 c 3.25,2.129 7.586,3.289 12.215,3.289 4.383,0 8.515,-3.312 11.535,-5.73 0.574,-0.469 1.101,-0.903 1.609,-1.274 l 0.242,-0.191 0.247,0.191 c 0.449,0.332 0.925,0.727 1.433,1.137 3.059,2.437 7.258,5.789 11.738,5.789 4.934,0 8.332,-0.852 11.399,-2.852 l 0.84,-0.539 c 3.047,-2.168 7.324,-3.367 12.383,-3.472 h 65.839 v 119.879 h -7.089"
         style="fill:#5b2d05;fill-opacity:1;fill-rule:nonzero;stroke:none"
         id="path84"
         inkscape:connector-curvature="0" /><path
         d="m 444.199,298.953 h -0.066 l -0.051,0.481 -50.535,-0.008 c -0.188,0.039 -4.504,1.133 -7.641,3.347 l -0.73,0.481 c -3.242,2.105 -6.922,3.047 -11.961,3.047 -4.777,0 -9.113,-3.481 -12.297,-6.02 -0.391,-0.308 -0.762,-0.601 -1.121,-0.886 -0.402,0.312 -0.82,0.656 -1.262,1.003 -3.125,2.524 -7.422,5.981 -12.129,5.981 -4.773,0 -9.277,-1.211 -12.636,-3.41 l -0.821,-0.457 c -2.344,-1.645 -4.929,-2.532 -6.047,-2.91 -0.214,-0.082 -0.359,-0.122 -0.464,-0.168 l -49.79,-0.008 -0.691,-0.117 V 188.801 h 50.547 c 1.555,0 7.019,3.023 7.637,3.355 4.14,2.239 8.086,3.36 11.699,3.36 6.582,0 10.644,-3.602 13.066,-5.758 0.449,-0.41 0.84,-0.742 1.172,-0.996 l 0.242,-0.199 0.246,0.199 c 0.411,0.308 0.86,0.672 1.348,1.062 2.813,2.258 7.051,5.653 11.008,5.653 6.277,0 10.359,-1.875 13.641,-3.375 l 0.148,-0.059 c 0.184,-0.117 4.5,-2.832 7.477,-3.242 h 50.207 l -0.196,110.152"
         style="fill:#ffffff;fill-opacity:1;fill-rule:nonzero;stroke:none"
         id="path86"
         inkscape:connector-curvature="0" /><path
         d="m 356.816,286.766 -0.039,-79.918 5.703,-0.239 v 80.012 l -5.664,0.145"
         style="fill:#5b2d05;fill-opacity:1;fill-rule:nonzero;stroke:none"
         id="path88"
         inkscape:connector-curvature="0" /><path
         d="m 179.98,133.738 h 27.708 v -11.011 h -1.204 c -1.132,7.789 -4.511,9.16 -10.996,9.16 -2.656,0 -3.515,-0.215 -3.515,-2.578 v -12.715 c 4.609,-0.039 7.07,1.375 7.785,8.164 h 1.238 v -18.52 h -1.238 c -0.578,6.86 -3.02,8.496 -7.785,8.496 v -13.257 c 0,-2.4145 0.898,-3.0707 4.023,-3.0707 4.707,0 9.609,1.4296 12.656,9.7067 h 1.309 L 208.066,96.7109 H 179.98 v 1.3633 c 2.723,0.3321 4.219,0.5117 4.219,3.8988 v 26.511 c 0,3.618 -2.011,3.723 -4.219,3.891 v 1.363"
         style="fill:#ffffff;fill-opacity:1;fill-rule:nonzero;stroke:none"
         id="path90"
         inkscape:connector-curvature="0" /><path
         d="m 255.32,122.727 c -0.925,3.843 -3.953,10.144 -9.968,10.144 -2.637,0 -5.411,-1.648 -5.411,-5.203 0,-2.973 0.918,-4.16 5.215,-6.469 l 7.461,-3.992 c 1.738,-0.945 5.598,-4.109 5.598,-10.078 0,-4.832 -3.242,-11.4649 -12.602,-11.4649 -4.832,0 -7.117,1.8632 -8.711,1.8632 -1.062,0 -1.297,-0.9726 -1.492,-1.8632 h -1.504 v 13.5349 h 1.504 c 0.996,-5.539 3.953,-11.7263 10.41,-11.7263 6.094,0 6.348,5.4253 6.348,6.1403 0,3.66 -2.402,4.989 -5.703,6.692 l -3.399,1.754 c -8.691,4.496 -8.691,9.203 -8.691,11.711 0,3.347 1.582,10.8 11.238,10.8 4.055,0 6.457,-1.804 7.922,-1.804 1.184,0 1.438,0.82 1.68,1.875 h 1.543 v -11.914 h -1.438"
         style="fill:#ffffff;fill-opacity:1;fill-rule:nonzero;stroke:none"
         id="path92"
         inkscape:connector-curvature="0" /><path
         d="m 308.086,96.7109 h -18.621 v 1.3633 c 3.797,0.3242 5.047,0.4414 5.047,5.0388 v 28.867 c -3.645,-0.214 -9.024,-0.476 -10.059,-9.253 h -1.523 l 0.156,11.011 h 31.316 l 0.102,-11.011 h -1.496 c -1.055,8.777 -6.426,9.039 -10.028,9.253 v -28.867 c 0,-4.656 1.239,-4.7614 5.106,-5.0388 v -1.3633"
         style="fill:#ffffff;fill-opacity:1;fill-rule:nonzero;stroke:none"
         id="path94"
         inkscape:connector-curvature="0" /><path
         d="m 339.188,105.242 c 2.628,0 4.757,-2.129 4.757,-4.637 0,-2.6284 -2.129,-4.6089 -4.757,-4.6089 -2.665,0 -4.676,2.0312 -4.676,4.6089 0,2.454 2.011,4.637 4.676,4.637"
         style="fill:#ffffff;fill-opacity:1;fill-rule:nonzero;stroke:none"
         id="path96"
         inkscape:connector-curvature="0" /><path
         d="M 391.777,96.7109 H 370.82 v 1.3164 c 6.485,-0.0507 6.66,2.0707 6.66,5.4807 v 21.094 c 0,1.367 0,3.777 -2.175,3.777 -0.813,0 -2.688,-0.652 -4.582,-1.367 v 1.418 l 14.062,5.972 h 0.938 v -31.226 c 0,-3.6721 0.527,-5.1487 6.054,-5.1487 v -1.3164"
         style="fill:#ffffff;fill-opacity:1;fill-rule:nonzero;stroke:none"
         id="path98"
         inkscape:connector-curvature="0" /><path
         d="m 424.219,105.313 c 0,4.011 1.179,5.703 2.871,8.164 3.789,-2.461 7.422,-4.817 7.422,-9.305 0,-1.43 0,-6.4181 -4.981,-6.4181 -3.633,0 -5.312,3.6011 -5.312,7.5591 z m 6.562,29.089 c -8.945,0 -12.683,-4.656 -12.683,-9.761 0,-4.536 3.582,-7.875 7.769,-10.188 -3.758,-1.144 -8.379,-3.269 -8.379,-9.25 0,-6.0233 5.637,-9.2069 11.653,-9.2069 7.988,0 13.125,4.2699 13.125,11.1329 0,5.09 -3.567,8.918 -8.379,11.711 3.078,0.973 7.605,2.957 7.605,7.617 0,3.125 -2.234,7.945 -10.711,7.945 z m -5.488,-6.023 c 0,2.258 1.848,4.434 4.59,4.434 4.14,0 4.961,-3.895 4.961,-6.688 0,-3.281 -0.996,-4.594 -2.305,-6.312 -0.547,0.292 -7.246,3.48 -7.246,8.566"
         style="fill:#ffffff;fill-opacity:1;fill-rule:nonzero;stroke:none"
         id="path100"
         inkscape:connector-curvature="0" /><path
         d="m 478.254,96.7109 h -5.285 l 11.152,29.5271 h -11.543 c -1.465,0 -4.265,0 -5.476,-4.668 h -1.399 l 2.449,12.168 h 23.235 L 478.254,96.7109"
         style="fill:#ffffff;fill-opacity:1;fill-rule:nonzero;stroke:none"
         id="path102"
         inkscape:connector-curvature="0" /><path
         d="m 527.09,96.7109 h -5.293 l 11.152,29.5271 h -11.531 c -1.496,0 -4.27,0 -5.512,-4.668 h -1.386 l 2.453,12.168 h 23.254 L 527.09,96.7109"
         style="fill:#ffffff;fill-opacity:1;fill-rule:nonzero;stroke:none"
         id="path104"
         inkscape:connector-curvature="0" /><path
         d="m 284.551,433.91 c -2.656,2.61 -6.492,4.102 -10.547,4.102 -2.664,0 -5.313,-0.668 -7.649,-1.938 -2.871,-1.562 -4.8,-2.875 -6.511,-4.031 -2.239,-1.516 -4.004,-2.711 -6.836,-3.75 -2.305,-0.852 -5.899,-1.98 -10.528,-1.98 -1.66,0 -3.347,0.152 -5,0.449 -8.105,1.476 -9.621,3.343 -9.628,3.355 l -0.481,-0.273 -0.086,0.062 c -0.012,-0.019 -1.543,-1.883 -9.629,-3.359 -1.66,-0.297 -3.34,-0.453 -5.011,-0.453 -5.204,0 -9.188,1.488 -10.497,1.976 -2.832,1.047 -4.597,2.243 -6.835,3.75 -1.719,1.157 -3.653,2.473 -6.536,4.035 -2.332,1.27 -4.968,1.938 -7.644,1.938 -4.055,0 -7.891,-1.492 -10.547,-4.102 -7.695,-7.582 -6.231,-13.746 -3.711,-20.445 3.613,-9.633 18.328,-47.531 18.477,-47.926 l 0.117,-0.308 0.332,0.054 c 10.5,1.836 22.929,2.766 36.965,2.766 16.035,0 30.437,-1.238 37.605,-1.973 4.004,-0.421 5.84,-0.625 6.926,-0.754 0.926,-0.093 1.308,-0.132 2,-0.195 l 0.312,-0.039 0.11,0.297 c 0.144,0.391 15.086,39.055 18.543,48.301 2.519,6.699 3.984,12.859 -3.711,20.441"
         style="fill:#ffffff;fill-opacity:1;fill-rule:nonzero;stroke:none"
         id="path106"
         inkscape:connector-curvature="0" /><path
         d="m 271.602,368.445 c -6.622,1.313 -10.032,4.106 -13.36,11.258 0,0 -0.879,2.192 -0.879,2.527 v 0.059 c -9.343,-8.109 -21.035,-5.105 -26.386,0.074 -2.09,2.012 -3.555,4.5 -3.555,4.5 l 0.027,0.047 c 0,0 -1.453,-2.492 -3.523,-4.5 -5.371,-5.176 -17.051,-8.183 -26.399,-0.062 v -0.063 c 0,-0.344 -0.879,-2.539 -0.879,-2.539 -3.328,-7.148 -6.753,-9.941 -13.359,-11.238 l -1.883,5.508 c 1.719,0.371 2.774,0.703 5.606,2.668 3.73,2.601 5.105,6.679 5.41,9.711 0.234,2.371 0,1.793 0,1.793 -0.567,-0.239 -0.977,-0.629 -2.07,-0.461 -2.305,0.339 -2.286,2.632 -2.063,3.367 0,0 0.246,1.195 1.496,1.66 0.781,0.293 1.629,0.598 1.629,0.598 0,0 0.227,-0.563 -0.984,2.199 -1.121,2.554 -6.895,4.043 -9.707,0.41 0,0 -1.493,-2.25 -1.184,-4.145 0,0 -0.457,0.102 -1.531,2.25 -1.074,2.145 -0.637,3.872 0.312,6.137 1.368,3.297 3.985,4.449 6.543,4.344 2.559,-0.106 1.739,0.41 1.27,2.301 -0.469,1.886 -0.988,4.867 -0.672,7.472 0.223,1.973 0.535,2.188 0.535,2.188 0,0 0.723,-0.274 2.051,-1.512 0,0 2.051,-1.82 4.07,-6.441 1.106,-2.52 1.059,-1.641 2.551,-0.586 1.504,1.062 3.27,1.929 5.84,1.133 2.617,-0.825 5.129,-2.016 5.781,-5.325 0.488,-2.386 0.313,-2.648 0.313,-2.648 0,0 -0.301,0.605 -1.668,1.566 -1.371,0.946 -2.961,1.563 -5.11,0.817 -2.148,-0.758 -4.265,-3.344 -4.199,-5.184 0.078,-1.844 0.469,-2.879 0.684,-3.394 0,0 0.234,0.117 1.796,0.718 2.442,0.946 5.508,-2.898 1.883,-4.789 l -1.57,-0.574 c 0,0 0,-0.312 1.973,-2.73 1.992,-2.422 4.629,-3.375 6.035,-3.813 0,0 5.488,-2.152 10.918,1.16 5.41,3.297 6.75,5.821 7.226,10.864 0,0 0.196,4.121 0.164,5.082 -0.039,0.949 0.032,1.558 0.032,1.558 l -0.059,0.094 c 0,0 -2.344,0.062 -3.945,-0.34 -1.602,-0.41 -5.684,-1.691 -8.282,-4.875 -1.667,-2.051 -1.777,-2.523 -1.777,-2.523 v 20.785 c 0,0 0.449,-0.985 2.11,-2.785 1.679,-1.813 5.097,-4.094 8.32,-4.707 1.426,-0.278 3.418,-0.375 3.691,-0.344 l 0.098,-0.031 c 0,0 0.058,2.351 -0.352,3.953 -0.39,1.601 -1.679,5.676 -4.863,8.281 -2.051,1.676 -2.527,1.77 -2.527,1.77 h 20.789 c 0,0 -0.977,-0.438 -2.781,-2.114 -1.821,-1.668 -4.094,-5.078 -4.719,-8.312 -0.254,-1.434 -0.371,-3.407 -0.332,-3.684 v 0 c 0,0 2.343,-0.062 3.957,0.348 1.59,0.41 5.672,1.687 8.269,4.871 1.68,2.043 1.778,2.519 1.778,2.519 v -20.789 c 0,0 -0.45,0.989 -2.11,2.797 -1.672,1.809 -5.09,4.086 -8.32,4.703 -1.426,0.274 -3.223,0.379 -3.496,0.344 0,0 0.039,-0.84 0.012,-1.797 -0.032,-0.949 0.183,-5.07 0.183,-5.07 0.469,-5.043 1.797,-7.574 7.207,-10.879 5.43,-3.301 10.899,-1.152 10.899,-1.152 1.406,0.445 4.062,1.394 6.054,3.808 1.973,2.426 1.973,2.731 1.973,2.731 l -1.57,0.574 c -3.645,1.891 -0.578,5.73 1.863,4.801 1.594,-0.606 1.816,-0.723 1.816,-0.723 0.215,0.512 0.606,1.547 0.684,3.383 0.059,1.844 -2.051,4.433 -4.199,5.183 -2.149,0.754 -3.731,0.149 -5.117,-0.82 -1.36,-0.945 -1.661,-1.558 -1.661,-1.558 0,0 -0.175,0.269 0.301,2.66 0.656,3.301 3.164,4.492 5.793,5.304 2.559,0.813 4.336,-0.054 5.828,-1.117 1.496,-1.054 1.457,-1.933 2.551,0.578 2.031,4.629 4.082,6.446 4.082,6.446 1.328,1.246 2.063,1.511 2.063,1.511 0,0 0.3,-0.211 0.535,-2.191 0.293,-2.602 -0.235,-5.582 -0.684,-7.473 -0.469,-1.886 -1.289,-2.394 1.27,-2.304 2.558,0.109 5.175,-1.043 6.543,-4.344 0.957,-2.25 1.386,-3.981 0.3,-6.129 -1.062,-2.148 -1.531,-2.25 -1.531,-2.25 0.313,1.895 -1.172,4.145 -1.172,4.145 -2.8,3.632 -8.593,2.144 -9.707,-0.411 -1.211,-2.765 -0.976,-2.203 -0.976,-2.203 0,0 0.847,-0.301 1.621,-0.597 1.238,-0.461 1.504,-1.657 1.504,-1.657 0.207,-0.726 0.234,-3.039 -2.071,-3.371 -1.113,-0.168 -1.511,0.231 -2.07,0.473 0,0 -0.234,0.57 0,-1.793 0.293,-3.043 1.68,-7.113 5.41,-9.719 2.832,-1.969 3.867,-2.301 5.606,-2.672 l -1.953,-5.293"
         style="fill:#5b2d05;fill-opacity:1;fill-rule:nonzero;stroke:none"
         id="path108"
         inkscape:connector-curvature="0" /><path
         d="m 484.813,548.762 c -0.028,0.105 -2.958,10.91 -17.899,13.621 -12.246,2.226 -17.883,3.965 -23.32,5.648 -1.172,0.367 -2.332,0.723 -3.535,1.074 l -0.352,0.11 -3.965,-10.145 -32.781,-0.031 c 2.352,3.055 11.863,15.391 12.215,15.922 l 0.293,0.43 -0.489,0.183 c -1.738,0.641 -2.48,1.219 -3.269,1.828 -1.398,1.09 -2.856,2.207 -9.648,3.614 -1.497,0.308 -2.629,0.504 -4.465,0.757 l -0.293,0.04 -0.137,-0.258 c -1.16,-2.289 -2.891,-5.953 -4.285,-8.903 -0.852,-1.785 -1.535,-3.242 -1.848,-3.851 h -35.156 c 1.387,2.387 6.621,11.101 10.371,14.375 l 0.742,0.64 -0.976,0.075 c -3.086,0.214 -3.75,0.406 -4.512,0.621 -0.684,0.195 -1.453,0.414 -3.867,0.687 -0.703,0.078 -1.477,0.199 -2.227,0.324 l -0.937,0.145 -0.137,-0.07 c -0.918,-0.547 -1.707,-1.02 -2.207,-2.586 -0.606,-1.981 -4.629,-13.594 -5.313,-15.535 h -28.964 c 0.625,1.156 2.05,3.73 3.261,5.367 l 0.489,0.648 -16.457,0.067 c 0.89,1.734 2.98,4.824 5.187,8.078 2.688,3.984 5.469,8.105 6.555,10.433 0.047,0.098 0.078,0.215 0.105,0.352 0.02,0.066 0.039,0.133 0.059,0.18 l 0.156,0.445 -0.469,0.098 c -0.793,0.164 -1.367,0.293 -1.797,0.39 -1.378,0.305 -1.406,0.309 -2.605,0.328 l -0.703,0.008 c -9.543,0 -31.028,-16.422 -37.375,-21.449 -1.887,-1.504 -5.801,-2.77 -10.352,-4.231 -10.293,-3.316 -24.402,-7.863 -29.133,-19.543 l -0.222,-0.562 249.863,0.16 h 0.527 l -0.128,0.516"
         style="fill:#fab20b;fill-opacity:1;fill-rule:nonzero;stroke:none"
         id="path110"
         inkscape:connector-curvature="0" /><path
         d="m 301.699,696.137 c -0.066,0.254 -0.156,0.519 -0.195,0.715 1.516,-0.336 6.836,-3.766 9.414,-9.524 2.012,-4.496 2.812,-11.64 -4.766,-20.137 -0.578,-0.648 -1.394,-0.976 -2.441,-0.976 -3.059,0 -7.168,2.906 -7.344,5.992 -0.09,1.352 0.84,2.82 2,4.68 1.242,1.968 2.778,4.418 3.801,7.777 1.504,4.953 0.176,9.356 -0.469,11.473 z m -4.961,-37.746 c -0.371,-2.457 -0.508,-2.942 -1.277,-2.942 -0.766,0 -2.102,0.473 -4.316,1.254 -0.579,0.246 -2.063,-0.488 -4.485,-1.742 -0.879,-0.465 -2.031,-1.059 -2.656,-1.305 3.32,9.172 13.281,10.938 13.379,10.953 l 0.058,0.004 0.079,-0.023 c 0.273,-0.336 -0.079,-2.219 -0.313,-3.457 -0.215,-1.07 -0.352,-1.977 -0.469,-2.742 z m 178.809,-7.137 -0.625,-0.426 c -0.039,-0.023 -3.555,-2.43 -6.817,-3.277 -3.027,-0.789 -4.511,-0.926 -6.074,-1.071 l -0.136,-0.015 c -3.008,-0.289 -2.989,-2.824 -2.969,-4.672 v -0.477 c 0.012,-0.089 -0.008,-0.894 -1.399,-1.05 -1.199,-0.114 -1.961,-0.036 -2.488,0.441 l -0.195,0.184 c -1.25,1.105 -2,1.777 -2.676,4.058 -0.586,1.969 -0.906,3.446 -1.211,4.871 -0.496,2.282 -0.918,4.246 -2.266,7.305 -0.058,0.273 -1.613,6.699 -12.812,15.371 -7.793,6.016 -24.395,14.902 -30.43,17.43 -0.761,0.316 -1.816,0.793 -3.066,1.347 -3.731,1.668 -9.363,4.18 -13.797,5.543 -4.152,1.274 -4.57,2.438 -4.797,3.063 -0.051,0.141 -0.098,0.266 -0.168,0.379 l -0.359,0.59 c -1.172,1.965 -1.614,2.695 -4.864,4.976 -0.351,0.254 -0.839,0.637 -1.445,1.11 -3.203,2.527 -9.883,7.793 -18.191,9.593 -1.274,0.274 -2.219,0.508 -3.196,0.746 -2.531,0.622 -5.136,1.266 -13.496,2.731 -4.023,0.703 -7.675,1.066 -10.84,1.066 -5.031,0 -8.085,-0.871 -10.183,-1.625 -3.313,-1.183 -5.981,-2.543 -12.785,-10.343 -6.348,-7.262 -7.071,-7.493 -10.535,-8.586 -1.145,-0.356 -2.563,-0.805 -4.543,-1.594 -8.262,-3.309 -10.801,-4.859 -14.317,-8.77 -0.273,-0.332 -6.758,-8.113 -8.496,-12.316 -1.738,-4.156 -2.273,-6.211 -0.547,-9.863 0.711,-1.52 1.621,-2.86 1.66,-2.918 l 0.149,-0.133 c 0.808,-0.43 1.297,-1.973 1.297,-4.137 0,-1.394 0.066,-3.297 0.617,-5.633 0.535,-2.261 1.062,-3.496 2.73,-4.843 0.403,-0.325 0.754,-0.625 1.086,-0.918 0.586,-0.508 1.145,-0.993 1.867,-1.485 l 0.536,-0.363 c 1.629,-1.102 1.629,-1.102 1.738,-3.434 0.019,-0.386 0.039,-0.839 0.059,-1.339 0.007,-0.325 0.058,-7.825 0.886,-9.629 1.028,-2.172 1.828,-3.621 3.742,-3.844 1.485,-0.18 2.414,-0.805 2.414,-0.805 0.223,-0.176 0.418,-0.332 0.614,-0.484 1.133,-0.856 1.886,-1.422 2.441,-4.43 0.86,-4.562 -0.222,-7.476 -0.234,-7.504 l -0.235,-0.605 0.645,0.047 c 2.207,0.172 3.516,0.336 6.75,1.886 3.68,1.774 3.894,1.895 7.891,4.45 2.742,1.761 2.957,1.644 4.441,1.074 0.293,-0.11 0.613,-0.235 1.008,-0.363 4.375,-1.454 18.535,-8.325 22.254,-10.661 3.105,-1.945 3.164,-2.922 3.215,-4.058 0.007,-0.293 0.027,-0.594 0.085,-0.91 0.34,-2.059 0.235,-4.079 -1.035,-11.313 -0.761,-4.473 -2.988,-10.48 -5.175,-13.961 -2.2,-3.476 -2.461,-3.828 -2.461,-3.832 l -0.547,-0.672 h 16.152 l 0.098,0.262 c 0.019,0.043 1.679,4.23 2.351,6.406 l 0.168,0.535 c 0.489,1.633 0.508,1.696 2.168,3.118 1.973,1.707 3.496,5.316 5.821,11.062 1.66,4.098 3.105,9.445 4.16,13.348 0.41,1.527 0.769,2.843 1.035,3.695 0.183,0.566 0.305,1.035 0.41,1.414 0.371,1.5 0.371,1.5 3.203,1.805 3.086,0.332 6.27,1.496 10.313,3.793 2.773,1.578 4.726,3.133 5.73,4.004 0.012,-0.598 0.109,-1.414 0.422,-2.403 1.289,-4.207 2.754,-5.215 4.297,-6.285 0.461,-0.316 0.93,-0.64 1.406,-1.058 1.66,-1.442 3.594,-4.414 3.418,-10.399 -0.117,-3.902 -3.184,-11.242 -5.117,-14.094 -2.512,-3.718 -5.457,-5.66 -6.875,-6.593 -0.293,-0.196 -0.527,-0.344 -0.664,-0.457 -4.754,-3.688 -6.945,-7.055 -7.031,-7.2 l -0.411,-0.625 19.2,-0.125 h 0.246 l 0.117,0.215 c 0.203,0.371 0.535,1.016 0.945,1.821 1.192,2.332 3.184,6.242 4.707,8.57 2.5,3.859 6.004,7.566 7.696,9.348 l 0.578,0.617 c 0.613,0.683 1.05,1.113 1.355,1.418 0.781,0.769 0.84,0.847 0.899,1.824 l 0.039,0.465 c 0.097,1.324 0.097,1.894 0.09,3.148 0,0.945 0,2.285 0.046,4.645 0.098,5.476 0.118,5.496 0.899,6.351 0.254,0.289 0.605,0.68 1.062,1.328 1.379,1.977 4.524,4.844 6.606,6.739 0.75,0.687 1.375,1.25 1.726,1.613 0.567,0.562 1.161,1.121 1.524,1.121 0.344,0 0.664,-0.609 0.887,-1.121 0.207,-0.504 0.355,-0.77 0.519,-1.066 0.242,-0.454 0.527,-0.965 1.172,-2.614 1.035,-2.605 1.465,-7.715 1.855,-12.226 l 0.02,-0.336 c 0.43,-4.903 0.742,-6.364 3.066,-10.719 1.524,-2.898 3.797,-8.617 1.739,-14.324 l -0.313,-0.883 c -1.453,-4.039 -1.601,-4.465 -4.004,-8.383 -2.512,-4.074 -4.902,-6.683 -4.922,-6.707 l -0.625,-0.687 H 432.5 l 10.598,25.683 0.047,0.125 -0.032,0.137 c -0.008,0.019 -0.554,2.086 -1.355,6.375 -0.684,3.656 -2.422,13.371 -3.418,24.516 -0.93,10.5 1.875,23.265 2.851,25.699 0.411,1.039 0.684,1.558 0.86,1.824 0.027,-0.203 0.058,-0.453 0.066,-0.605 0.024,-0.172 0.031,-0.332 0.051,-0.454 0.078,-0.386 0.176,-0.632 0.293,-0.937 0.168,-0.43 0.391,-1.012 0.742,-2.414 0.676,-2.723 3.809,-11.078 7.93,-13.875 3.222,-2.18 6.086,-2.606 9.062,-1.262 0.52,0.235 0.926,0.481 1.328,0.715 1.106,0.656 2.051,1.223 5.04,1.223 2.031,0 3.066,0.074 4.343,1.726 1.399,1.789 1.711,2.781 2.297,4.578 0.254,0.746 0.547,1.641 0.977,2.809 1.465,3.851 1.386,6.992 1.386,7.125 l -0.019,0.75"
         style="fill:#fab20b;fill-opacity:1;fill-rule:nonzero;stroke:none"
         id="path112"
         inkscape:connector-curvature="0" /><path
         d="m 332.48,605.801 c -0.195,3.066 -6.152,5.269 -6.406,5.359 -0.105,0.039 -0.234,0.028 -0.344,-0.035 -0.105,-0.07 -0.164,-0.184 -0.171,-0.305 -0.012,-0.175 -1.164,-17.871 -2.434,-20.55 -1.074,-2.301 -2.207,-3.829 -3.191,-5.18 -0.942,-1.274 -1.829,-2.473 -2.512,-4.09 -0.059,-0.121 -0.039,-0.258 0.039,-0.371 0.066,-0.106 0.195,-0.168 0.312,-0.168 0.008,0 0.008,0 0.02,0 l 7.512,0.187 c 0.105,0.004 0.191,0.043 0.261,0.118 0.079,0.086 7.969,8.367 6.914,25.035"
         style="fill:#fab20b;fill-opacity:1;fill-rule:nonzero;stroke:none"
         id="path114"
         inkscape:connector-curvature="0" /><path
         d="m 229.707,481.996 v 0.016 c 0,4.73 4.824,17.465 8.887,19.293 H 216.25 c 4.063,-1.828 8.75,-14.563 8.75,-19.293 h -0.02 c -4.738,0 -17.46,4.343 -19.289,8.41 v -21.473 c 1.829,4.059 14.551,8.356 19.289,8.352 0,-3.422 -1.691,-9.434 -4.062,-11.574 -4.188,-2.305 -7.051,-6.7 -7.051,-11.821 0,-7.476 6.055,-13.535 13.535,-13.535 7.493,0 13.555,6.059 13.555,13.535 0,5.289 -3.066,9.817 -7.473,12.047 -2.254,2.133 -3.894,8.047 -3.894,11.348 4.726,0 17.578,-4.403 19.375,-8.461 v 21.473 c -1.797,-4.059 -14.539,-8.317 -19.258,-8.317"
         style="fill:#5b2d05;fill-opacity:1;fill-rule:nonzero;stroke:none"
         id="path116"
         inkscape:connector-curvature="0" /></g></g></svg>